<?xml version="1.0" encoding="UTF-8" standalone="no"?>
<svg
   xmlns:dc="http://purl.org/dc/elements/1.1/"
   xmlns:cc="http://creativecommons.org/ns#"
   xmlns:rdf="http://www.w3.org/1999/02/22-rdf-syntax-ns#"
   xmlns:svg="http://www.w3.org/2000/svg"
   xmlns="http://www.w3.org/2000/svg"
   xmlns:sodipodi="http://sodipodi.sourceforge.net/DTD/sodipodi-0.dtd"
   xmlns:inkscape="http://www.inkscape.org/namespaces/inkscape"
   width="95.25mm"
   height="142.875mm"
   viewBox="0 0 95.25 142.875"
   version="1.1"
   id="svg14792"
   inkscape:version="1.0.1 (3bc2e813f5, 2020-09-07)"
   sodipodi:docname="C4.svg">
  <defs
     id="defs14786" />
  <sodipodi:namedview
     id="base"
     pagecolor="#ffffff"
     bordercolor="#666666"
     borderopacity="1.0"
     inkscape:pageopacity="0.0"
     inkscape:pageshadow="2"
     inkscape:zoom="0.35"
     inkscape:cx="377.85729"
     inkscape:cy="187.14275"
     inkscape:document-units="mm"
     inkscape:current-layer="g72"
     inkscape:document-rotation="0"
     showgrid="false"
     inkscape:window-width="1920"
     inkscape:window-height="1017"
     inkscape:window-x="1912"
     inkscape:window-y="-8"
     inkscape:window-maximized="1" />
  <metadata
     id="metadata14789">
    <rdf:RDF>
      <cc:Work
         rdf:about="">
        <dc:format>image/svg+xml</dc:format>
        <dc:type
           rdf:resource="http://purl.org/dc/dcmitype/StillImage" />
        <dc:title></dc:title>
      </cc:Work>
    </rdf:RDF>
  </metadata>
  <g
     inkscape:label="Laag 1"
     inkscape:groupmode="layer"
     id="layer1"
     transform="translate(-5.8585908,-98.651815)">
    <g
       transform="matrix(0.26458333,0,0,0.26458333,-295.25613,278.9457)"
       id="g72">
      <g
         transform="translate(1138.0714,-1193.7857)"
         id="g184">
        <rect
           x="0.5"
           y="512.85999"
           width="359"
           height="539"
           rx="29.944"
           fill="#ffffff"
           stroke="#000000"
           id="rect166" />
        <path
           d="m 30,542.36 -10,35 v 5 h 12 v 10 h 5 v -10 h 3 v -5 h -3 v -15 h -5 v 15 h -6.8 l 10,-35 z"
           id="path168" />
        <path
           d="m 330,1022.4 10,-35 v -5 h -12 v -10 h -5 v 10 h -3 v 5 h 3 v 15 h 5 v -15 h 6.8 l -10,35 z"
           id="path170" />
        <path
           d="m 100,562.37 c -3.999,-0.082 -6.667,1.333 -9.333,4 -2.667,2.667 -4,5.333 -4,9.333 0,4 1.518,6.372 4,9.333 2.375,2.833 4,4 5.333,6.666 1.333,2.667 2.667,8 2.667,10.666 v 4 H 96 c -2.667,0 -8,-2.667 -9.333,-4 l -4,-4 c -2.667,-2.667 -5.333,-4 -9.333,-4 -4,0 -6.667,1.333 -9.333,4 -2.667,2.667 -4,5.333 -4,9.333 0,4 1.333,6.666 4,9.333 2.667,2.667 5.333,4 9.333,4 4,0 6.667,-1.333 9.333,-4 l 4,-4 c 1.333,-1.333 6.667,-4 9.333,-4 h 2.667 c -0.066,3.776 -0.346,10.37 -1.333,13.333 -1.333,4 -4,8 -6.667,10.666 -2.667,2.667 -10.667,8 -10.667,8 v 1.333 c 0,0 13.333,-2.667 16,-2.667 h 8 c 2.667,0 16,2.667 16,2.667 v -1.333 c 0,0 -8,-5.333 -10.667,-8 -2.667,-2.667 -5.333,-6.666 -6.667,-10.666 -0.988,-2.963 -1.267,-9.557 -1.333,-13.333 h 2.67 c 2.667,0 8,2.667 9.333,4 l 4,4 c 2.667,2.667 5.333,4 9.333,4 4,0 6.667,-1.333 9.333,-4 2.667,-2.667 4,-5.333 4,-9.333 0,-4 -1.333,-6.666 -4,-9.333 -2.667,-2.667 -5.333,-4 -9.333,-4 -4,0 -6.667,1.333 -9.333,4 l -4,4 c -1.333,1.333 -6.667,4 -9.333,4 h -2.667 v -4 c 0,-2.667 1.333,-8 2.667,-10.666 1.333,-2.667 2.667,-4 5.333,-6.666 2.653,-2.653 4,-5.333 4,-9.333 0,-4 -1.333,-6.666 -4,-9.333 -2.667,-2.667 -5.333,-4 -9.333,-4"
           id="path172" />
        <path
           d="m 260,562.37 c -3.999,-0.082 -6.667,1.333 -9.333,4 -2.667,2.667 -4,5.333 -4,9.333 0,4 1.518,6.372 4,9.333 2.375,2.833 4,4 5.333,6.666 1.333,2.667 2.667,8 2.667,10.666 v 4 h -2.67 c -2.667,0 -8,-2.667 -9.333,-4 l -4,-4 c -2.667,-2.667 -5.333,-4 -9.333,-4 -4,0 -6.667,1.333 -9.333,4 -2.667,2.667 -4,5.333 -4,9.333 0,4 1.333,6.666 4,9.333 2.667,2.667 5.333,4 9.333,4 4,0 6.667,-1.333 9.333,-4 l 4,-4 c 1.333,-1.333 6.667,-4 9.333,-4 h 2.667 c -0.066,3.776 -0.346,10.37 -1.333,13.333 -1.333,4 -4,8 -6.667,10.666 -2.667,2.667 -10.667,8 -10.667,8 v 1.333 c 0,0 13.333,-2.667 16,-2.667 h 8 c 2.667,0 16,2.667 16,2.667 v -1.333 c 0,0 -8,-5.333 -10.667,-8 -2.667,-2.667 -5.333,-6.666 -6.667,-10.666 -0.988,-2.963 -1.267,-9.557 -1.333,-13.333 H 264 c 2.667,0 8,2.667 9.333,4 l 4,4 c 2.667,2.667 5.333,4 9.333,4 4,0 6.667,-1.333 9.333,-4 2.667,-2.667 4,-5.333 4,-9.333 0,-4 -1.333,-6.666 -4,-9.333 -2.667,-2.667 -5.333,-4 -9.333,-4 -4,0 -6.667,1.333 -9.333,4 l -4,4 c -1.333,1.333 -6.667,4 -9.333,4 h -2.667 v -4 c 0,-2.667 1.333,-8 2.667,-10.666 1.333,-2.667 2.667,-4 5.333,-6.666 2.653,-2.653 4,-5.333 4,-9.333 0,-4 -1.333,-6.666 -4,-9.333 -2.667,-2.667 -5.333,-4 -9.333,-4"
           id="path174" />
        <path
           d="m 260,1002.4 c 3.999,0.081 6.667,-1.333 9.333,-4 2.667,-2.667 4,-5.333 4,-9.333 0,-4 -1.518,-6.372 -4,-9.333 -2.375,-2.833 -4,-4 -5.333,-6.666 -1.333,-2.667 -2.667,-8 -2.667,-10.666 v -4 h 2.67 c 2.667,0 8,2.667 9.333,4 l 4,4 c 2.667,2.667 5.333,4 9.333,4 4,0 6.667,-1.333 9.333,-4 2.667,-2.667 4,-5.333 4,-9.333 0,-4 -1.333,-6.666 -4,-9.333 -2.667,-2.667 -5.333,-4 -9.333,-4 -4,0 -6.667,1.333 -9.333,4 l -4,4 c -1.333,1.333 -6.667,4 -9.333,4 h -2.667 c 0.066,-3.776 0.346,-10.37 1.333,-13.333 1.333,-4 4,-8 6.667,-10.666 2.667,-2.667 10.667,-8 10.667,-8 v -1.333 c 0,0 -13.333,2.667 -16,2.667 h -8 c -2.667,0 -16,-2.667 -16,-2.667 v 1.333 c 0,0 8,5.333 10.667,8 2.667,2.667 5.333,6.666 6.667,10.666 0.988,2.963 1.267,9.557 1.333,13.333 H 256 c -2.667,0 -8,-2.667 -9.333,-4 l -4,-4 c -2.667,-2.667 -5.333,-4 -9.333,-4 -4,0 -6.667,1.333 -9.333,4 -2.667,2.667 -4,5.333 -4,9.333 0,4 1.333,6.666 4,9.333 2.667,2.667 5.333,4 9.333,4 4,0 6.667,-1.333 9.333,-4 l 4,-4 c 1.333,-1.333 6.667,-4 9.333,-4 h 2.667 v 4 c 0,2.667 -1.333,8 -2.667,10.666 -1.333,2.667 -2.667,4 -5.333,6.666 -2.653,2.653 -4,5.333 -4,9.333 0,4 1.333,6.666 4,9.333 2.667,2.667 5.333,4 9.333,4"
           id="path176" />
        <path
           d="m 100,1002.4 c 3.999,0.081 6.667,-1.333 9.333,-4 2.667,-2.667 4,-5.333 4,-9.333 0,-4 -1.518,-6.372 -4,-9.333 -2.375,-2.833 -4,-4 -5.333,-6.666 -1.333,-2.667 -2.667,-8 -2.667,-10.666 v -4 h 2.67 c 2.667,0 8,2.667 9.333,4 l 4,4 c 2.667,2.667 5.333,4 9.333,4 4,0 6.667,-1.333 9.333,-4 2.667,-2.667 4,-5.333 4,-9.333 0,-4 -1.333,-6.666 -4,-9.333 -2.667,-2.667 -5.333,-4 -9.333,-4 -4,0 -6.667,1.333 -9.333,4 l -4,4 c -1.333,1.333 -6.667,4 -9.333,4 h -2.667 c 0.066,-3.776 0.346,-10.37 1.333,-13.333 1.333,-4 4,-8 6.667,-10.666 2.667,-2.667 10.667,-8 10.667,-8 v -1.333 c 0,0 -13.333,2.667 -16,2.667 h -8 c -2.667,0 -16,-2.667 -16,-2.667 v 1.333 c 0,0 8,5.333 10.667,8 2.667,2.667 5.333,6.666 6.667,10.666 0.988,2.963 1.267,9.557 1.333,13.333 h -2.667 c -2.667,0 -8,-2.667 -9.333,-4 l -4,-4 c -2.667,-2.667 -5.333,-4 -9.333,-4 -4,0 -6.667,1.333 -9.333,4 -2.667,2.667 -4,5.333 -4,9.333 0,4 1.333,6.666 4,9.333 2.667,2.667 5.333,4 9.333,4 4,0 6.667,-1.333 9.333,-4 l 4,-4 c 1.333,-1.333 6.667,-4 9.333,-4 h 2.667 v 4 c 0,2.667 -1.333,8 -2.667,10.666 -1.333,2.667 -2.667,4 -5.333,6.666 -2.653,2.653 -4,5.333 -4,9.333 0,4 1.333,6.666 4,9.333 2.667,2.667 5.333,4 9.333,4"
           id="path178" />
        <path
           d="m 30,602.36 c -1.5,-0.031 -2.5,0.5 -3.5,1.5 -1,1 -1.5,2 -1.5,3.5 0,1.5 0.569,2.39 1.5,3.5 0.891,1.063 1.5,1.5 2,2.5 0.5,1 1,3 1,4 v 1.5 h -1 c -1,0 -3,-1 -3.5,-1.5 l -1.5,-1.5 c -1,-1 -2,-1.5 -3.5,-1.5 -1.5,0 -2.5,0.5 -3.5,1.5 -1,1 -1.5,2 -1.5,3.5 0,1.5 0.5,2.5 1.5,3.5 1,1 2,1.5 3.5,1.5 1.5,0 2.5,-0.5 3.5,-1.5 l 1.5,-1.5 c 0.5,-0.5 2.5,-1.5 3.5,-1.5 h 1 c -0.025,1.416 -0.13,3.889 -0.5,5 -0.5,1.5 -1.5,3 -2.5,4 -1,1 -4,3 -4,3 v 0.5 c 0,0 5,-1 6,-1 h 3 c 1,0 6,1 6,1 v -0.5 c 0,0 -3,-2 -4,-3 -1,-1 -2,-2.5 -2.5,-4 -0.37,-1.111 -0.475,-3.584 -0.5,-5 h 1 c 1,0 3,1 3.5,1.5 l 1.5,1.5 c 1,1 2,1.5 3.5,1.5 1.5,0 2.5,-0.5 3.5,-1.5 1,-1 1.5,-2 1.5,-3.5 0,-1.5 -0.5,-2.5 -1.5,-3.5 -1,-1 -2,-1.5 -3.5,-1.5 -1.5,0 -2.5,0.5 -3.5,1.5 l -1.5,1.5 c -0.5,0.5 -2.5,1.5 -3.5,1.5 h -1 v -1.5 c 0,-1 0.5,-3 1,-4 0.5,-1 1,-1.5 2,-2.5 0.995,-0.995 1.5,-2 1.5,-3.5 0,-1.5 -0.5,-2.5 -1.5,-3.5 -1,-1 -2,-1.5 -3.5,-1.5"
           id="path180" />
        <path
           d="m 330,962.36 c 1.5,0.028 2.5,-0.445 3.5,-1.333 1,-0.889 1.5,-1.778 1.5,-3.111 0,-1.333 -0.569,-2.124 -1.5,-3.111 -0.891,-0.944 -1.5,-1.333 -2,-2.222 -0.5,-0.889 -1,-2.667 -1,-3.556 v -1.333 h 1 c 1,0 3,0.889 3.5,1.333 l 1.5,1.333 c 1,0.889 2,1.333 3.5,1.333 1.5,0 2.5,-0.445 3.5,-1.333 1,-0.889 1.5,-1.778 1.5,-3.111 0,-1.333 -0.5,-2.222 -1.5,-3.111 -1,-0.889 -2,-1.333 -3.5,-1.333 -1.5,0 -2.5,0.444 -3.5,1.333 l -1.5,1.333 c -0.5,0.444 -2.5,1.333 -3.5,1.333 h -1 c 0.025,-1.259 0.13,-3.457 0.5,-4.445 0.5,-1.333 1.5,-2.667 2.5,-3.556 1,-0.889 4,-2.667 4,-2.667 v -0.444 c 0,0 -5,0.889 -6,0.889 h -3 c -1,0 -6,-0.889 -6,-0.889 v 0.444 c 0,0 3,1.778 4,2.667 1,0.889 2,2.222 2.5,3.556 0.37,0.988 0.475,3.186 0.5,4.445 h -1 c -1,0 -3,-0.889 -3.5,-1.333 l -1.5,-1.333 c -1,-0.889 -2,-1.333 -3.5,-1.333 -1.5,0 -2.5,0.444 -3.5,1.333 -1,0.889 -1.5,1.778 -1.5,3.111 0,1.333 0.5,2.222 1.5,3.111 1,0.889 2,1.333 3.5,1.333 1.5,0 2.5,-0.445 3.5,-1.333 l 1.5,-1.333 c 0.5,-0.444 2.5,-1.333 3.5,-1.333 h 1 v 1.333 c 0,0.889 -0.5,2.667 -1,3.556 -0.5,0.889 -1,1.333 -2,2.222 -0.995,0.885 -1.5,1.778 -1.5,3.111 0,1.333 0.5,2.222 1.5,3.111 1,0.889 2,1.333 3.5,1.333"
           id="path182" />
      </g>
    </g>
  </g>
</svg>
