<?xml version="1.0" encoding="UTF-8" standalone="no"?>
<svg
   xmlns:dc="http://purl.org/dc/elements/1.1/"
   xmlns:cc="http://creativecommons.org/ns#"
   xmlns:rdf="http://www.w3.org/1999/02/22-rdf-syntax-ns#"
   xmlns:svg="http://www.w3.org/2000/svg"
   xmlns="http://www.w3.org/2000/svg"
   xmlns:sodipodi="http://sodipodi.sourceforge.net/DTD/sodipodi-0.dtd"
   xmlns:inkscape="http://www.inkscape.org/namespaces/inkscape"
   width="95.25mm"
   height="142.875mm"
   viewBox="0 0 95.25 142.875"
   version="1.1"
   id="svg14792"
   inkscape:version="1.0.1 (3bc2e813f5, 2020-09-07)"
   sodipodi:docname="C6.svg">
  <defs
     id="defs14786" />
  <sodipodi:namedview
     id="base"
     pagecolor="#ffffff"
     bordercolor="#666666"
     borderopacity="1.0"
     inkscape:pageopacity="0.0"
     inkscape:pageshadow="2"
     inkscape:zoom="0.35"
     inkscape:cx="832.143"
     inkscape:cy="124.28556"
     inkscape:document-units="mm"
     inkscape:current-layer="g72"
     inkscape:document-rotation="0"
     showgrid="false"
     inkscape:window-width="1920"
     inkscape:window-height="1017"
     inkscape:window-x="1912"
     inkscape:window-y="-8"
     inkscape:window-maximized="1" />
  <metadata
     id="metadata14789">
    <rdf:RDF>
      <cc:Work
         rdf:about="">
        <dc:format>image/svg+xml</dc:format>
        <dc:type
           rdf:resource="http://purl.org/dc/dcmitype/StillImage" />
        <dc:title></dc:title>
      </cc:Work>
    </rdf:RDF>
  </metadata>
  <g
     inkscape:label="Laag 1"
     inkscape:groupmode="layer"
     id="layer1"
     transform="translate(114.33784,-115.28278)">
    <g
       transform="matrix(0.26458333,0,0,0.26458333,-295.25613,278.9457)"
       id="g72">
      <g
         transform="translate(683.78568,-1130.9285)"
         id="g230">
        <rect
           x="0.5"
           y="512.85999"
           width="359"
           height="539"
           rx="29.944"
           fill="#ffffff"
           stroke="#000000"
           id="rect208" />
        <path
           d="m 30,542.36 c -5.54,0 -10,4.46 -10,10 v 30 c 0,5.54 4.46,10 10,10 5.54,0 10,-4.46 10,-10 v -10 c 0,-5.54 -4.46,-10 -10,-10 -1.823,0 -3.532,0.499 -5,1.344 v -11.34 c 0,-2.77 2.23,-5 5,-5 2.77,0 5,2.23 5,5 v 1 h 5 v -1 c 0,-5.54 -4.46,-10 -10,-10 m 0,25 c 2.77,0 5,2.23 5,5 v 10 c 0,2.77 -2.23,5 -5,5 -2.77,0 -5,-2.23 -5,-5 v -10 c 0,-2.77 2.23,-5 5,-5"
           id="path210" />
        <path
           d="m 330,1022.4 c 5.54,0 10,-4.46 10,-10 v -30 c 0,-5.54 -4.46,-10 -10,-10 -5.54,0 -10,4.46 -10,10 v 10 c 0,5.54 4.46,10 10,10 1.823,0 3.532,-0.499 5,-1.344 v 11.344 c 0,2.77 -2.23,5 -5,5 -2.77,0 -5,-2.23 -5,-5 v -1 h -5 v 1 c 0,5.54 4.46,10 10,10 m 0,-25 c -2.77,0 -5,-2.23 -5,-5 v -10 c 0,-2.77 2.23,-5 5,-5 2.77,0 5,2.23 5,5 v 10 c 0,2.77 -2.23,5 -5,5"
           id="path212" />
        <path
           d="m 100,562.37 c -3.999,-0.082 -6.667,1.333 -9.333,4 -2.667,2.667 -4,5.333 -4,9.333 0,4 1.518,6.372 4,9.333 2.375,2.833 4,4 5.333,6.666 1.333,2.667 2.667,8 2.667,10.666 v 4 H 96 c -2.667,0 -8,-2.667 -9.333,-4 l -4,-4 c -2.667,-2.667 -5.333,-4 -9.333,-4 -4,0 -6.667,1.333 -9.333,4 -2.667,2.667 -4,5.333 -4,9.333 0,4 1.333,6.666 4,9.333 2.667,2.667 5.333,4 9.333,4 4,0 6.667,-1.333 9.333,-4 l 4,-4 c 1.333,-1.333 6.667,-4 9.333,-4 h 2.667 c -0.066,3.776 -0.346,10.37 -1.333,13.333 -1.333,4 -4,8 -6.667,10.666 -2.667,2.667 -10.667,8 -10.667,8 v 1.333 c 0,0 13.333,-2.667 16,-2.667 h 8 c 2.667,0 16,2.667 16,2.667 v -1.333 c 0,0 -8,-5.333 -10.667,-8 -2.667,-2.667 -5.333,-6.666 -6.667,-10.666 -0.988,-2.963 -1.267,-9.557 -1.333,-13.333 h 2.67 c 2.667,0 8,2.667 9.333,4 l 4,4 c 2.667,2.667 5.333,4 9.333,4 4,0 6.667,-1.333 9.333,-4 2.667,-2.667 4,-5.333 4,-9.333 0,-4 -1.333,-6.666 -4,-9.333 -2.667,-2.667 -5.333,-4 -9.333,-4 -4,0 -6.667,1.333 -9.333,4 l -4,4 c -1.333,1.333 -6.667,4 -9.333,4 h -2.667 v -4 c 0,-2.667 1.333,-8 2.667,-10.666 1.333,-2.667 2.667,-4 5.333,-6.666 2.653,-2.653 4,-5.333 4,-9.333 0,-4 -1.333,-6.666 -4,-9.333 -2.667,-2.667 -5.333,-4 -9.333,-4"
           id="path214" />
        <path
           d="m 260,562.37 c -3.999,-0.082 -6.667,1.333 -9.333,4 -2.667,2.667 -4,5.333 -4,9.333 0,4 1.518,6.372 4,9.333 2.375,2.833 4,4 5.333,6.666 1.333,2.667 2.667,8 2.667,10.666 v 4 h -2.67 c -2.667,0 -8,-2.667 -9.333,-4 l -4,-4 c -2.667,-2.667 -5.333,-4 -9.333,-4 -4,0 -6.667,1.333 -9.333,4 -2.667,2.667 -4,5.333 -4,9.333 0,4 1.333,6.666 4,9.333 2.667,2.667 5.333,4 9.333,4 4,0 6.667,-1.333 9.333,-4 l 4,-4 c 1.333,-1.333 6.667,-4 9.333,-4 h 2.667 c -0.066,3.776 -0.346,10.37 -1.333,13.333 -1.333,4 -4,8 -6.667,10.666 -2.667,2.667 -10.667,8 -10.667,8 v 1.333 c 0,0 13.333,-2.667 16,-2.667 h 8 c 2.667,0 16,2.667 16,2.667 v -1.333 c 0,0 -8,-5.333 -10.667,-8 -2.667,-2.667 -5.333,-6.666 -6.667,-10.666 -0.988,-2.963 -1.267,-9.557 -1.333,-13.333 H 264 c 2.667,0 8,2.667 9.333,4 l 4,4 c 2.667,2.667 5.333,4 9.333,4 4,0 6.667,-1.333 9.333,-4 2.667,-2.667 4,-5.333 4,-9.333 0,-4 -1.333,-6.666 -4,-9.333 -2.667,-2.667 -5.333,-4 -9.333,-4 -4,0 -6.667,1.333 -9.333,4 l -4,4 c -1.333,1.333 -6.667,4 -9.333,4 h -2.667 v -4 c 0,-2.667 1.333,-8 2.667,-10.666 1.333,-2.667 2.667,-4 5.333,-6.666 2.653,-2.653 4,-5.333 4,-9.333 0,-4 -1.333,-6.666 -4,-9.333 -2.667,-2.667 -5.333,-4 -9.333,-4"
           id="path216" />
        <path
           d="m 100,742.37 c -3.999,-0.082 -6.667,1.333 -9.333,4 -2.667,2.667 -4,5.333 -4,9.333 0,4 1.518,6.372 4,9.333 2.375,2.833 4,4 5.333,6.666 1.333,2.667 2.667,8 2.667,10.666 v 4 H 96 c -2.667,0 -8,-2.667 -9.333,-4 l -4,-4 c -2.667,-2.667 -5.333,-4 -9.333,-4 -4,0 -6.667,1.333 -9.333,4 -2.667,2.667 -4,5.333 -4,9.333 0,4 1.333,6.666 4,9.333 2.667,2.667 5.333,4 9.333,4 4,0 6.667,-1.333 9.333,-4 l 4,-4 c 1.333,-1.333 6.667,-4 9.333,-4 h 2.667 c -0.066,3.776 -0.346,10.37 -1.333,13.333 -1.333,4 -4,8 -6.667,10.666 -2.667,2.667 -10.667,8 -10.667,8 v 1.333 c 0,0 13.333,-2.667 16,-2.667 h 8 c 2.667,0 16,2.667 16,2.667 v -1.333 c 0,0 -8,-5.333 -10.667,-8 -2.667,-2.667 -5.333,-6.666 -6.667,-10.666 -0.988,-2.963 -1.267,-9.557 -1.333,-13.333 h 2.67 c 2.667,0 8,2.667 9.333,4 l 4,4 c 2.667,2.667 5.333,4 9.333,4 4,0 6.667,-1.333 9.333,-4 2.667,-2.667 4,-5.333 4,-9.333 0,-4 -1.333,-6.666 -4,-9.333 -2.667,-2.667 -5.333,-4 -9.333,-4 -4,0 -6.667,1.333 -9.333,4 l -4,4 c -1.333,1.333 -6.667,4 -9.333,4 h -2.667 v -4 c 0,-2.667 1.333,-8 2.667,-10.666 1.333,-2.667 2.667,-4 5.333,-6.666 2.653,-2.653 4,-5.333 4,-9.333 0,-4 -1.333,-6.666 -4,-9.333 -2.667,-2.667 -5.333,-4 -9.333,-4"
           id="path218" />
        <path
           d="m 260,742.37 c -3.999,-0.082 -6.667,1.333 -9.333,4 -2.667,2.667 -4,5.333 -4,9.333 0,4 1.518,6.372 4,9.333 2.375,2.833 4,4 5.333,6.666 1.333,2.667 2.667,8 2.667,10.666 v 4 h -2.67 c -2.667,0 -8,-2.667 -9.333,-4 l -4,-4 c -2.667,-2.667 -5.333,-4 -9.333,-4 -4,0 -6.667,1.333 -9.333,4 -2.667,2.667 -4,5.333 -4,9.333 0,4 1.333,6.666 4,9.333 2.667,2.667 5.333,4 9.333,4 4,0 6.667,-1.333 9.333,-4 l 4,-4 c 1.333,-1.333 6.667,-4 9.333,-4 h 2.667 c -0.066,3.776 -0.346,10.37 -1.333,13.333 -1.333,4 -4,8 -6.667,10.666 -2.667,2.667 -10.667,8 -10.667,8 v 1.333 c 0,0 13.333,-2.667 16,-2.667 h 8 c 2.667,0 16,2.667 16,2.667 v -1.333 c 0,0 -8,-5.333 -10.667,-8 -2.667,-2.667 -5.333,-6.666 -6.667,-10.666 -0.988,-2.963 -1.267,-9.557 -1.333,-13.333 H 264 c 2.667,0 8,2.667 9.333,4 l 4,4 c 2.667,2.667 5.333,4 9.333,4 4,0 6.667,-1.333 9.333,-4 2.667,-2.667 4,-5.333 4,-9.333 0,-4 -1.333,-6.666 -4,-9.333 -2.667,-2.667 -5.333,-4 -9.333,-4 -4,0 -6.667,1.333 -9.333,4 l -4,4 c -1.333,1.333 -6.667,4 -9.333,4 h -2.667 v -4 c 0,-2.667 1.333,-8 2.667,-10.666 1.333,-2.667 2.667,-4 5.333,-6.666 2.653,-2.653 4,-5.333 4,-9.333 0,-4 -1.333,-6.666 -4,-9.333 -2.667,-2.667 -5.333,-4 -9.333,-4"
           id="path220" />
        <path
           d="m 260,1002.4 c 3.999,0.081 6.667,-1.333 9.333,-4 2.667,-2.667 4,-5.333 4,-9.333 0,-4 -1.518,-6.372 -4,-9.333 -2.375,-2.833 -4,-4 -5.333,-6.666 -1.333,-2.667 -2.667,-8 -2.667,-10.666 v -4 h 2.67 c 2.667,0 8,2.667 9.333,4 l 4,4 c 2.667,2.667 5.333,4 9.333,4 4,0 6.667,-1.333 9.333,-4 2.667,-2.667 4,-5.333 4,-9.333 0,-4 -1.333,-6.666 -4,-9.333 -2.667,-2.667 -5.333,-4 -9.333,-4 -4,0 -6.667,1.333 -9.333,4 l -4,4 c -1.333,1.333 -6.667,4 -9.333,4 h -2.667 c 0.066,-3.776 0.346,-10.37 1.333,-13.333 1.333,-4 4,-8 6.667,-10.666 2.667,-2.667 10.667,-8 10.667,-8 v -1.333 c 0,0 -13.333,2.667 -16,2.667 h -8 c -2.667,0 -16,-2.667 -16,-2.667 v 1.333 c 0,0 8,5.333 10.667,8 2.667,2.667 5.333,6.666 6.667,10.666 0.988,2.963 1.267,9.557 1.333,13.333 H 256 c -2.667,0 -8,-2.667 -9.333,-4 l -4,-4 c -2.667,-2.667 -5.333,-4 -9.333,-4 -4,0 -6.667,1.333 -9.333,4 -2.667,2.667 -4,5.333 -4,9.333 0,4 1.333,6.666 4,9.333 2.667,2.667 5.333,4 9.333,4 4,0 6.667,-1.333 9.333,-4 l 4,-4 c 1.333,-1.333 6.667,-4 9.333,-4 h 2.667 v 4 c 0,2.667 -1.333,8 -2.667,10.666 -1.333,2.667 -2.667,4 -5.333,6.666 -2.653,2.653 -4,5.333 -4,9.333 0,4 1.333,6.666 4,9.333 2.667,2.667 5.333,4 9.333,4"
           id="path222" />
        <path
           d="m 100,1002.4 c 3.999,0.081 6.667,-1.333 9.333,-4 2.667,-2.667 4,-5.333 4,-9.333 0,-4 -1.518,-6.372 -4,-9.333 -2.375,-2.833 -4,-4 -5.333,-6.666 -1.333,-2.667 -2.667,-8 -2.667,-10.666 v -4 h 2.67 c 2.667,0 8,2.667 9.333,4 l 4,4 c 2.667,2.667 5.333,4 9.333,4 4,0 6.667,-1.333 9.333,-4 2.667,-2.667 4,-5.333 4,-9.333 0,-4 -1.333,-6.666 -4,-9.333 -2.667,-2.667 -5.333,-4 -9.333,-4 -4,0 -6.667,1.333 -9.333,4 l -4,4 c -1.333,1.333 -6.667,4 -9.333,4 h -2.667 c 0.066,-3.776 0.346,-10.37 1.333,-13.333 1.333,-4 4,-8 6.667,-10.666 2.667,-2.667 10.667,-8 10.667,-8 v -1.333 c 0,0 -13.333,2.667 -16,2.667 h -8 c -2.667,0 -16,-2.667 -16,-2.667 v 1.333 c 0,0 8,5.333 10.667,8 2.667,2.667 5.333,6.666 6.667,10.666 0.988,2.963 1.267,9.557 1.333,13.333 h -2.667 c -2.667,0 -8,-2.667 -9.333,-4 l -4,-4 c -2.667,-2.667 -5.333,-4 -9.333,-4 -4,0 -6.667,1.333 -9.333,4 -2.667,2.667 -4,5.333 -4,9.333 0,4 1.333,6.666 4,9.333 2.667,2.667 5.333,4 9.333,4 4,0 6.667,-1.333 9.333,-4 l 4,-4 c 1.333,-1.333 6.667,-4 9.333,-4 h 2.667 v 4 c 0,2.667 -1.333,8 -2.667,10.666 -1.333,2.667 -2.667,4 -5.333,6.666 -2.653,2.653 -4,5.333 -4,9.333 0,4 1.333,6.666 4,9.333 2.667,2.667 5.333,4 9.333,4"
           id="path224" />
        <path
           d="m 30,602.36 c -1.5,-0.031 -2.5,0.5 -3.5,1.5 -1,1 -1.5,2 -1.5,3.5 0,1.5 0.569,2.39 1.5,3.5 0.891,1.063 1.5,1.5 2,2.5 0.5,1 1,3 1,4 v 1.5 h -1 c -1,0 -3,-1 -3.5,-1.5 l -1.5,-1.5 c -1,-1 -2,-1.5 -3.5,-1.5 -1.5,0 -2.5,0.5 -3.5,1.5 -1,1 -1.5,2 -1.5,3.5 0,1.5 0.5,2.5 1.5,3.5 1,1 2,1.5 3.5,1.5 1.5,0 2.5,-0.5 3.5,-1.5 l 1.5,-1.5 c 0.5,-0.5 2.5,-1.5 3.5,-1.5 h 1 c -0.025,1.416 -0.13,3.889 -0.5,5 -0.5,1.5 -1.5,3 -2.5,4 -1,1 -4,3 -4,3 v 0.5 c 0,0 5,-1 6,-1 h 3 c 1,0 6,1 6,1 v -0.5 c 0,0 -3,-2 -4,-3 -1,-1 -2,-2.5 -2.5,-4 -0.37,-1.111 -0.475,-3.584 -0.5,-5 h 1 c 1,0 3,1 3.5,1.5 l 1.5,1.5 c 1,1 2,1.5 3.5,1.5 1.5,0 2.5,-0.5 3.5,-1.5 1,-1 1.5,-2 1.5,-3.5 0,-1.5 -0.5,-2.5 -1.5,-3.5 -1,-1 -2,-1.5 -3.5,-1.5 -1.5,0 -2.5,0.5 -3.5,1.5 l -1.5,1.5 c -0.5,0.5 -2.5,1.5 -3.5,1.5 h -1 v -1.5 c 0,-1 0.5,-3 1,-4 0.5,-1 1,-1.5 2,-2.5 0.995,-0.995 1.5,-2 1.5,-3.5 0,-1.5 -0.5,-2.5 -1.5,-3.5 -1,-1 -2,-1.5 -3.5,-1.5"
           id="path226" />
        <path
           d="m 330,962.36 c 1.5,0.031 2.5,-0.5 3.5,-1.5 1,-1 1.5,-2 1.5,-3.5 0,-1.5 -0.569,-2.39 -1.5,-3.5 -0.891,-1.063 -1.5,-1.5 -2,-2.5 -0.5,-1 -1,-3 -1,-4 v -1.5 h 1 c 1,0 3,1 3.5,1.5 l 1.5,1.5 c 1,1 2,1.5 3.5,1.5 1.5,0 2.5,-0.5 3.5,-1.5 1,-1 1.5,-2 1.5,-3.5 0,-1.5 -0.5,-2.5 -1.5,-3.5 -1,-1 -2,-1.5 -3.5,-1.5 -1.5,0 -2.5,0.5 -3.5,1.5 l -1.5,1.5 c -0.5,0.5 -2.5,1.5 -3.5,1.5 h -1 c 0.025,-1.416 0.13,-3.889 0.5,-5 0.5,-1.5 1.5,-3 2.5,-4 1,-1 4,-3 4,-3 v -0.5 c 0,0 -5,1 -6,1 h -3 c -1,0 -6,-1 -6,-1 v 0.5 c 0,0 3,2 4,3 1,1 2,2.5 2.5,4 0.37,1.111 0.475,3.584 0.5,5 h -1 c -1,0 -3,-1 -3.5,-1.5 l -1.5,-1.5 c -1,-1 -2,-1.5 -3.5,-1.5 -1.5,0 -2.5,0.5 -3.5,1.5 -1,1 -1.5,2 -1.5,3.5 0,1.5 0.5,2.5 1.5,3.5 1,1 2,1.5 3.5,1.5 1.5,0 2.5,-0.5 3.5,-1.5 l 1.5,-1.5 c 0.5,-0.5 2.5,-1.5 3.5,-1.5 h 1 v 1.5 c 0,1 -0.5,3 -1,4 -0.5,1 -1,1.5 -2,2.5 -0.995,0.995 -1.5,2 -1.5,3.5 0,1.5 0.5,2.5 1.5,3.5 1,1 2,1.5 3.5,1.5"
           id="path228" />
      </g>
    </g>
  </g>
</svg>
