<?xml version="1.0" encoding="UTF-8" standalone="no"?>
<svg
   xmlns:dc="http://purl.org/dc/elements/1.1/"
   xmlns:cc="http://creativecommons.org/ns#"
   xmlns:rdf="http://www.w3.org/1999/02/22-rdf-syntax-ns#"
   xmlns:svg="http://www.w3.org/2000/svg"
   xmlns="http://www.w3.org/2000/svg"
   xmlns:sodipodi="http://sodipodi.sourceforge.net/DTD/sodipodi-0.dtd"
   xmlns:inkscape="http://www.inkscape.org/namespaces/inkscape"
   width="95.25mm"
   height="142.875mm"
   viewBox="0 0 95.25 142.875"
   version="1.1"
   id="svg14792"
   inkscape:version="1.0.1 (3bc2e813f5, 2020-09-07)"
   sodipodi:docname="D8.svg">
  <defs
     id="defs14786" />
  <sodipodi:namedview
     id="base"
     pagecolor="#ffffff"
     bordercolor="#666666"
     borderopacity="1.0"
     inkscape:pageopacity="0.0"
     inkscape:pageshadow="2"
     inkscape:zoom="0.35"
     inkscape:cx="1032.143"
     inkscape:cy="154.28565"
     inkscape:document-units="mm"
     inkscape:current-layer="layer1"
     inkscape:document-rotation="0"
     showgrid="false"
     inkscape:window-width="1920"
     inkscape:window-height="1017"
     inkscape:window-x="1912"
     inkscape:window-y="-8"
     inkscape:window-maximized="1" />
  <metadata
     id="metadata14789">
    <rdf:RDF>
      <cc:Work
         rdf:about="">
        <dc:format>image/svg+xml</dc:format>
        <dc:type
           rdf:resource="http://purl.org/dc/dcmitype/StillImage" />
        <dc:title></dc:title>
      </cc:Work>
    </rdf:RDF>
  </metadata>
  <g
     inkscape:label="Laag 1"
     inkscape:groupmode="layer"
     id="layer1"
     transform="translate(167.2545,-107.34526)">
    <g
       transform="matrix(0.26458333,0,0,0.26458333,-167.2545,-28.216654)"
       id="g490">
      <rect
         x="0.5"
         y="512.85999"
         width="359"
         height="539"
         rx="29.944"
         fill="#ffffff"
         stroke="#000000"
         id="rect462" />
      <g
         fill="#ff5555"
         id="g488">
        <path
           d="m 100,562.36 c 0,0 8,13.333 17.333,22.667 9.333,9.333 22.667,17.333 22.667,17.333 0,0 -13.333,8 -22.667,17.333 -9.33,9.34 -17.33,22.67 -17.33,22.67 0,0 -8,-13.333 -17.333,-22.667 -9.333,-9.33 -22.667,-17.33 -22.667,-17.33 0,0 13.333,-8 22.667,-17.333 9.333,-9.34 17.333,-22.67 17.333,-22.67"
           id="path464" />
        <path
           d="m 260,562.36 c 0,0 8,13.333 17.333,22.667 9.333,9.333 22.667,17.333 22.667,17.333 0,0 -13.333,8 -22.667,17.333 -9.33,9.34 -17.33,22.67 -17.33,22.67 0,0 -8,-13.333 -17.333,-22.667 -9.34,-9.33 -22.67,-17.33 -22.67,-17.33 0,0 13.333,-8 22.667,-17.333 9.33,-9.34 17.33,-22.67 17.33,-22.67"
           id="path466" />
        <path
           d="m 180,652.36 c 0,0 8,13.333 17.333,22.667 9.333,9.333 22.667,17.333 22.667,17.333 0,0 -13.333,8 -22.667,17.333 -9.33,9.34 -17.33,22.67 -17.33,22.67 0,0 -8,-13.333 -17.333,-22.667 -9.34,-9.33 -22.67,-17.33 -22.67,-17.33 0,0 13.333,-8 22.667,-17.333 9.33,-9.34 17.33,-22.67 17.33,-22.67"
           id="path468" />
        <path
           d="m 100,742.36 c 0,0 8,13.333 17.333,22.667 9.333,9.333 22.667,17.333 22.667,17.333 0,0 -13.333,8 -22.667,17.333 -9.33,9.34 -17.33,22.67 -17.33,22.67 0,0 -8,-13.333 -17.333,-22.667 -9.333,-9.33 -22.667,-17.33 -22.667,-17.33 0,0 13.333,-8 22.667,-17.333 9.333,-9.34 17.333,-22.67 17.333,-22.67"
           id="path470" />
        <path
           d="m 260,742.36 c 0,0 8,13.333 17.333,22.667 9.333,9.333 22.667,17.333 22.667,17.333 0,0 -13.333,8 -22.667,17.333 -9.33,9.34 -17.33,22.67 -17.33,22.67 0,0 -8,-13.333 -17.333,-22.667 -9.34,-9.33 -22.67,-17.33 -22.67,-17.33 0,0 13.333,-8 22.667,-17.333 9.33,-9.34 17.33,-22.67 17.33,-22.67"
           id="path472" />
        <path
           d="m 180,832.36 c 0,0 8,13.333 17.333,22.667 9.333,9.333 22.667,17.333 22.667,17.333 0,0 -13.333,8 -22.667,17.333 -9.33,9.34 -17.33,22.67 -17.33,22.67 0,0 -8,-13.333 -17.333,-22.667 -9.34,-9.33 -22.67,-17.33 -22.67,-17.33 0,0 13.333,-8 22.667,-17.333 9.33,-9.34 17.33,-22.67 17.33,-22.67"
           id="path474" />
        <path
           d="m 100,922.36 c 0,0 8,13.333 17.333,22.667 9.333,9.333 22.667,17.333 22.667,17.333 0,0 -13.333,8 -22.667,17.333 -9.33,9.34 -17.33,22.71 -17.33,22.71 0,0 -8,-13.333 -17.333,-22.667 -9.333,-9.37 -22.667,-17.37 -22.667,-17.37 0,0 13.333,-8 22.667,-17.333 9.333,-9.34 17.333,-22.67 17.333,-22.67"
           id="path476" />
        <path
           d="m 260,922.36 c 0,0 8,13.333 17.333,22.667 9.333,9.333 22.667,17.333 22.667,17.333 0,0 -13.333,8 -22.667,17.333 -9.33,9.34 -17.33,22.71 -17.33,22.71 0,0 -8,-13.333 -17.333,-22.667 -9.34,-9.37 -22.67,-17.37 -22.67,-17.37 0,0 13.333,-8 22.667,-17.333 9.33,-9.34 17.33,-22.67 17.33,-22.67"
           id="path478" />
        <path
           d="m 330,932.36 c 0,0 3,5 6.5,8.5 3.5,3.5 8.5,6.5 8.5,6.5 0,0 -5,3 -8.5,6.5 -3.5,3.5 -6.5,8.5 -6.5,8.5 0,0 -3,-5 -6.5,-8.5 -3.5,-3.5 -8.5,-6.5 -8.5,-6.5 0,0 5,-3 8.5,-6.5 3.5,-3.5 6.5,-8.5 6.5,-8.5"
           id="path480" />
        <path
           d="m 30,602.36 c 0,0 3,5 6.5,8.5 3.5,3.5 8.5,6.5 8.5,6.5 0,0 -5,3 -8.5,6.5 -3.5,3.5 -6.5,8.5 -6.5,8.5 0,0 -3,-5 -6.5,-8.5 -3.5,-3.5 -8.5,-6.5 -8.5,-6.5 0,0 5,-3 8.5,-6.5 3.5,-3.5 6.5,-8.5 6.5,-8.5"
           id="path482" />
        <path
           d="m 30,542.36 c -5.54,0 -10,4.46 -10,10 v 5 c 0,3 1.323,5.67 3.406,7.5 -2.083,1.83 -3.406,4.496 -3.406,7.5 v 10 c 0,5.54 4.46,10 10,10 5.54,0 10,-4.46 10,-10 v -10 c 0,-3 -1.323,-5.67 -3.406,-7.5 2.083,-1.83 3.406,-4.496 3.406,-7.5 v -5 c 0,-5.54 -4.46,-10 -10,-10 m 0,5 c 2.77,0 5,2.23 5,5 v 5 c 0,2.77 -2.23,5 -5,5 -2.77,0 -5,-2.23 -5,-5 v -5 c 0,-2.77 2.23,-5 5,-5 m 0,20 c 2.77,0 5,2.23 5,5 v 10 c 0,2.77 -2.23,5 -5,5 -2.77,0 -5,-2.23 -5,-5 v -10 c 0,-2.77 2.23,-5 5,-5"
           id="path484" />
        <path
           d="m 330,1022.4 c -5.54,0 -10,-4.46 -10,-10 v -5 c 0,-3 1.323,-5.67 3.406,-7.5 -2.083,-1.83 -3.406,-4.496 -3.406,-7.5 v -10 c 0,-5.54 4.46,-10 10,-10 5.54,0 10,4.46 10,10 v 10 c 0,3 -1.323,5.67 -3.406,7.5 2.083,1.83 3.406,4.496 3.406,7.5 v 5 c 0,5.54 -4.46,10 -10,10 m 0,-5 c 2.77,0 5,-2.23 5,-5 v -5 c 0,-2.77 -2.23,-5 -5,-5 -2.77,0 -5,2.23 -5,5 v 5 c 0,2.77 2.23,5 5,5 m 0,-20 c 2.77,0 5,-2.23 5,-5 v -10 c 0,-2.77 -2.23,-5 -5,-5 -2.77,0 -5,2.23 -5,5 v 10 c 0,2.77 2.23,5 5,5"
           id="path486" />
      </g>
    </g>
  </g>
</svg>
