<?xml version="1.0" encoding="UTF-8" standalone="no"?>
<svg
   xmlns:dc="http://purl.org/dc/elements/1.1/"
   xmlns:cc="http://creativecommons.org/ns#"
   xmlns:rdf="http://www.w3.org/1999/02/22-rdf-syntax-ns#"
   xmlns:svg="http://www.w3.org/2000/svg"
   xmlns="http://www.w3.org/2000/svg"
   xmlns:sodipodi="http://sodipodi.sourceforge.net/DTD/sodipodi-0.dtd"
   xmlns:inkscape="http://www.inkscape.org/namespaces/inkscape"
   width="95.25mm"
   height="142.875mm"
   viewBox="0 0 95.25 142.875"
   version="1.1"
   id="svg14792"
   inkscape:version="1.0.1 (3bc2e813f5, 2020-09-07)"
   sodipodi:docname="D10.svg">
  <defs
     id="defs14786" />
  <sodipodi:namedview
     id="base"
     pagecolor="#ffffff"
     bordercolor="#666666"
     borderopacity="1.0"
     inkscape:pageopacity="0.0"
     inkscape:pageshadow="2"
     inkscape:zoom="0.35"
     inkscape:cx="1320.7144"
     inkscape:cy="-14.285788"
     inkscape:document-units="mm"
     inkscape:current-layer="layer1"
     inkscape:document-rotation="0"
     showgrid="false"
     inkscape:window-width="1920"
     inkscape:window-height="1017"
     inkscape:window-x="1912"
     inkscape:window-y="-8"
     inkscape:window-maximized="1" />
  <metadata
     id="metadata14789">
    <rdf:RDF>
      <cc:Work
         rdf:about="">
        <dc:format>image/svg+xml</dc:format>
        <dc:type
           rdf:resource="http://purl.org/dc/dcmitype/StillImage" />
        <dc:title></dc:title>
      </cc:Work>
    </rdf:RDF>
  </metadata>
  <g
     inkscape:label="Laag 1"
     inkscape:groupmode="layer"
     id="layer1"
     transform="translate(243.60569,-151.94645)">
    <g
       transform="matrix(0.26458333,0,0,0.26458333,-243.60569,16.384538)"
       id="g14684">
      <rect
         x="0.5"
         y="512.85999"
         width="359"
         height="539"
         rx="29.944"
         fill="#ffffff"
         stroke="#000000"
         id="rect14644" />
      <g
         transform="translate(5,22.362)"
         fill="#ff5555"
         id="g14650">
        <path
           transform="translate(0,440)"
           d="m 10,80 -5,7 v 7 l 5,-7 v 43 h 5 V 80 h -5"
           id="path14646" />
        <path
           d="m 30,520 c -5.54,0 -10,4.46 -10,10 v 30 c 0,5.54 4.46,10 10,10 5.54,0 10,-4.46 10,-10 v -30 c 0,-5.54 -4.46,-10 -10,-10 m 0,5 c 2.77,0 5,2.23 5,5 v 30 c 0,2.77 -2.23,5 -5,5 -2.77,0 -5,-2.23 -5,-5 v -30 c 0,-2.77 2.23,-5 5,-5"
           id="path14648" />
      </g>
      <g
         fill="#ff5555"
         id="g14682">
        <g
           transform="rotate(180,177.5,771.2)"
           id="g14656">
          <path
             transform="translate(0,440)"
             d="m 10,80 -5,7 v 7 l 5,-7 v 43 h 5 V 80 h -5"
             id="path14652" />
          <path
             d="m 30,520 c -5.54,0 -10,4.46 -10,10 v 30 c 0,5.54 4.46,10 10,10 5.54,0 10,-4.46 10,-10 v -30 c 0,-5.54 -4.46,-10 -10,-10 m 0,5 c 2.77,0 5,2.23 5,5 v 30 c 0,2.77 -2.23,5 -5,5 -2.77,0 -5,-2.23 -5,-5 v -30 c 0,-2.77 2.23,-5 5,-5"
             id="path14654" />
        </g>
        <path
           d="m 100,562.36 c 0,0 8,13.333 17.333,22.667 9.333,9.333 22.667,17.333 22.667,17.333 0,0 -13.333,8 -22.667,17.333 -9.33,9.34 -17.33,22.67 -17.33,22.67 0,0 -8,-13.333 -17.333,-22.667 -9.333,-9.33 -22.667,-17.33 -22.667,-17.33 0,0 13.333,-8 22.667,-17.333 9.333,-9.34 17.333,-22.67 17.333,-22.67"
           id="path14658" />
        <path
           d="m 330,932.36 c 0,0 3,5 6.5,8.5 3.5,3.5 8.5,6.5 8.5,6.5 0,0 -5,3 -8.5,6.5 -3.5,3.5 -6.5,8.5 -6.5,8.5 0,0 -3,-5 -6.5,-8.5 -3.5,-3.5 -8.5,-6.5 -8.5,-6.5 0,0 5,-3 8.5,-6.5 3.5,-3.5 6.5,-8.5 6.5,-8.5"
           id="path14660" />
        <path
           d="m 30,602.36 c 0,0 3,5 6.5,8.5 3.5,3.5 8.5,6.5 8.5,6.5 0,0 -5,3 -8.5,6.5 -3.5,3.5 -6.5,8.5 -6.5,8.5 0,0 -3,-5 -6.5,-8.5 -3.5,-3.5 -8.5,-6.5 -8.5,-6.5 0,0 5,-3 8.5,-6.5 3.5,-3.5 6.5,-8.5 6.5,-8.5"
           id="path14662" />
        <path
           d="m 260,562.36 c 0,0 8,13.333 17.333,22.667 9.333,9.333 22.667,17.333 22.667,17.333 0,0 -13.333,8 -22.667,17.333 -9.33,9.34 -17.33,22.67 -17.33,22.67 0,0 -8,-13.333 -17.333,-22.667 -9.34,-9.33 -22.67,-17.33 -22.67,-17.33 0,0 13.333,-8 22.667,-17.333 9.33,-9.34 17.33,-22.67 17.33,-22.67"
           id="path14664" />
        <path
           d="m 260,682.36 c 0,0 8,13.333 17.333,22.667 9.333,9.333 22.667,17.333 22.667,17.333 0,0 -13.333,8 -22.667,17.333 -9.33,9.34 -17.33,22.67 -17.33,22.67 0,0 -8,-13.333 -17.333,-22.667 -9.34,-9.33 -22.67,-17.33 -22.67,-17.33 0,0 13.333,-8 22.667,-17.333 9.33,-9.34 17.33,-22.67 17.33,-22.67"
           id="path14666" />
        <path
           d="m 260,802.36 c 0,0 8,13.333 17.333,22.667 9.333,9.333 22.667,17.333 22.667,17.333 0,0 -13.333,8 -22.667,17.333 -9.33,9.34 -17.33,22.67 -17.33,22.67 0,0 -8,-13.333 -17.333,-22.667 -9.34,-9.33 -22.67,-17.33 -22.67,-17.33 0,0 13.333,-8 22.667,-17.333 9.33,-9.34 17.33,-22.67 17.33,-22.67"
           id="path14668" />
        <path
           d="m 260,922.36 c 0,0 8,13.333 17.333,22.667 9.333,9.333 22.667,17.333 22.667,17.333 0,0 -13.333,8 -22.667,17.333 -9.33,9.34 -17.33,22.71 -17.33,22.71 0,0 -8,-13.333 -17.333,-22.667 -9.34,-9.37 -22.67,-17.37 -22.67,-17.37 0,0 13.333,-8 22.667,-17.333 9.33,-9.34 17.33,-22.67 17.33,-22.67"
           id="path14670" />
        <path
           d="m 100,682.36 c 0,0 8,13.333 17.333,22.667 9.333,9.333 22.667,17.333 22.667,17.333 0,0 -13.333,8 -22.667,17.333 -9.33,9.34 -17.33,22.67 -17.33,22.67 0,0 -8,-13.333 -17.333,-22.667 -9.333,-9.33 -22.667,-17.33 -22.667,-17.33 0,0 13.333,-8 22.667,-17.333 9.333,-9.34 17.333,-22.67 17.333,-22.67"
           id="path14672" />
        <path
           d="m 100,802.36 c 0,0 8,13.333 17.333,22.667 9.333,9.333 22.667,17.333 22.667,17.333 0,0 -13.333,8 -22.667,17.333 -9.33,9.34 -17.33,22.67 -17.33,22.67 0,0 -8,-13.333 -17.333,-22.667 -9.333,-9.33 -22.667,-17.33 -22.667,-17.33 0,0 13.333,-8 22.667,-17.333 9.333,-9.34 17.333,-22.67 17.333,-22.67"
           id="path14674" />
        <path
           d="m 100,922.36 c 0,0 8,13.333 17.333,22.667 9.333,9.333 22.667,17.333 22.667,17.333 0,0 -13.333,8 -22.667,17.333 -9.33,9.34 -17.33,22.71 -17.33,22.71 0,0 -8,-13.333 -17.333,-22.667 -9.333,-9.37 -22.667,-17.37 -22.667,-17.37 0,0 13.333,-8 22.667,-17.333 9.333,-9.34 17.333,-22.67 17.333,-22.67"
           id="path14676" />
        <path
           d="m 180,622.36 c 0,0 8,13.333 17.333,22.667 9.333,9.333 22.667,17.333 22.667,17.333 0,0 -13.333,8 -22.667,17.333 -9.33,9.34 -17.33,22.67 -17.33,22.67 0,0 -8,-13.333 -17.333,-22.667 -9.34,-9.33 -22.67,-17.33 -22.67,-17.33 0,0 13.333,-8 22.667,-17.333 9.33,-9.34 17.33,-22.67 17.33,-22.67"
           id="path14678" />
        <path
           d="m 180,862.36 c 0,0 8,13.333 17.333,22.667 9.333,9.333 22.667,17.333 22.667,17.333 0,0 -13.333,8 -22.667,17.333 -9.33,9.34 -17.33,22.67 -17.33,22.67 0,0 -8,-13.333 -17.333,-22.667 -9.34,-9.33 -22.67,-17.33 -22.67,-17.33 0,0 13.333,-8 22.667,-17.333 9.33,-9.34 17.33,-22.67 17.33,-22.67"
           id="path14680" />
      </g>
    </g>
  </g>
</svg>
