<?xml version="1.0" encoding="UTF-8" standalone="no"?>
<svg
   xmlns:dc="http://purl.org/dc/elements/1.1/"
   xmlns:cc="http://creativecommons.org/ns#"
   xmlns:rdf="http://www.w3.org/1999/02/22-rdf-syntax-ns#"
   xmlns:svg="http://www.w3.org/2000/svg"
   xmlns="http://www.w3.org/2000/svg"
   xmlns:sodipodi="http://sodipodi.sourceforge.net/DTD/sodipodi-0.dtd"
   xmlns:inkscape="http://www.inkscape.org/namespaces/inkscape"
   width="95.25mm"
   height="142.875mm"
   viewBox="0 0 95.25 142.875"
   version="1.1"
   id="svg14792"
   inkscape:version="1.0.1 (3bc2e813f5, 2020-09-07)"
   sodipodi:docname="H8.svg">
  <defs
     id="defs14786" />
  <sodipodi:namedview
     id="base"
     pagecolor="#ffffff"
     bordercolor="#666666"
     borderopacity="1.0"
     inkscape:pageopacity="0.0"
     inkscape:pageshadow="2"
     inkscape:zoom="0.35"
     inkscape:cx="963.57157"
     inkscape:cy="365.71426"
     inkscape:document-units="mm"
     inkscape:current-layer="layer1"
     inkscape:document-rotation="0"
     showgrid="false"
     inkscape:window-width="1920"
     inkscape:window-height="1017"
     inkscape:window-x="1912"
     inkscape:window-y="-8"
     inkscape:window-maximized="1" />
  <metadata
     id="metadata14789">
    <rdf:RDF>
      <cc:Work
         rdf:about="">
        <dc:format>image/svg+xml</dc:format>
        <dc:type
           rdf:resource="http://purl.org/dc/dcmitype/StillImage" />
        <dc:title></dc:title>
      </cc:Work>
    </rdf:RDF>
  </metadata>
  <g
     inkscape:label="Laag 1"
     inkscape:groupmode="layer"
     id="layer1"
     transform="translate(149.11165,-51.404771)">
    <g
       id="g15331"
       transform="matrix(0.26458333,0,0,0.26458333,-879.36164,43.467265)">
      <rect
         x="2760.5"
         y="30.500025"
         width="359"
         height="539"
         rx="29.944"
         fill="#ffffff"
         stroke="#000000"
         id="rect14716" />
      <g
         fill="#ff5555"
         id="g14742"
         transform="translate(0,1827.6)">
        <path
           d="m 2790,-1700.1 c 0,0 0.682,-4.182 2,-5.5 1.318,-1.318 3.637,-2 5.5,-2 1.863,0 4.182,0.682 5.5,2 1.318,1.318 2,3.637 2,5.5 0,1.863 -1,4.5 -2,5.5 -1,1 -2,1.5 -3,2.5 -1,1 -1.5,1 -2.5,2 l -2.5,2.5 c -1,1 -2.5,3 -3.5,5 -1,2 -1.5,5 -1.5,5 0,0 -0.5,-3 -1.5,-5 -1,-2 -2.5,-4 -3.5,-5 l -2.5,-2.5 c -1,-1 -1.5,-1 -2.5,-2 -1,-1 -2,-1.5 -3,-2.5 -1,-1 -2,-3.637 -2,-5.5 0,-1.863 0.682,-4.182 2,-5.5 1.318,-1.318 3.637,-2 5.5,-2 1.863,0 4.182,0.682 5.5,2 1.318,1.318 2,5.5 2,5.5"
           id="path14718" />
        <path
           d="m 3090,-1355.1 c 0,0 0.682,4.182 2,5.5 1.318,1.318 3.637,2 5.5,2 1.863,0 4.182,-0.682 5.5,-2 1.318,-1.318 2,-3.637 2,-5.5 0,-1.863 -1,-4.5 -2,-5.5 -1,-1 -2,-1.5 -3,-2.5 -1,-1 -1.5,-1 -2.5,-2 l -2.5,-2.5 c -1,-1 -2.5,-3 -3.5,-5 -1,-2 -1.5,-5 -1.5,-5 0,0 -0.5,3 -1.5,5 -1,2 -2.5,4 -3.5,5 l -2.5,2.5 c -1,1 -1.5,1 -2.5,2 -1,1 -2,1.5 -3,2.5 -1,1 -2,3.637 -2,5.5 0,1.863 0.682,4.182 2,5.5 1.318,1.318 3.637,2 5.5,2 1.863,0 4.182,-0.682 5.5,-2 1.318,-1.318 2,-5.5 2,-5.5"
           id="path14720" />
        <path
           d="m 2790,-1767.6 c -5.54,0 -10,4.46 -10,10 v 5 c 0,3 1.323,5.67 3.406,7.5 -2.083,1.83 -3.406,4.496 -3.406,7.5 v 10 c 0,5.54 4.46,10 10,10 5.54,0 10,-4.46 10,-10 v -10 c 0,-3 -1.323,-5.67 -3.406,-7.5 2.083,-1.83 3.406,-4.496 3.406,-7.5 v -5 c 0,-5.54 -4.46,-10 -10,-10 m 0,5 c 2.77,0 5,2.23 5,5 v 5 c 0,2.77 -2.23,5 -5,5 -2.77,0 -5,-2.23 -5,-5 v -5 c 0,-2.77 2.23,-5 5,-5 m 0,20 c 2.77,0 5,2.23 5,5 v 10 c 0,2.77 -2.23,5 -5,5 -2.77,0 -5,-2.23 -5,-5 v -10 c 0,-2.77 2.23,-5 5,-5"
           id="path14722" />
        <path
           d="m 3090,-1287.6 c -5.54,0 -10,-4.46 -10,-10 v -5 c 0,-3 1.323,-5.67 3.406,-7.5 -2.083,-1.83 -3.406,-4.496 -3.406,-7.5 v -10 c 0,-5.54 4.46,-10 10,-10 5.54,0 10,4.46 10,10 v 10 c 0,3 -1.323,5.67 -3.406,7.5 2.083,1.83 3.406,4.496 3.406,7.5 v 5 c 0,5.54 -4.46,10 -10,10 m 0,-5 c 2.77,0 5,-2.23 5,-5 v -5 c 0,-2.77 -2.23,-5 -5,-5 -2.77,0 -5,2.23 -5,5 v 5 c 0,2.77 2.23,5 5,5 m 0,-20 c 2.77,0 5,-2.23 5,-5 v -10 c 0,-2.77 -2.23,-5 -5,-5 -2.77,0 -5,2.23 -5,5 v 10 c 0,2.77 2.23,5 5,5"
           id="path14724" />
        <path
           d="m 2860,-1727.6 c 0,0 1.82,-11.153 5.333,-14.667 3.514,-3.514 9.698,-5.333 14.667,-5.333 4.969,0 11.153,1.82 14.667,5.333 3.514,3.514 5.333,9.698 5.333,14.667 0,4.969 -2.667,12 -5.333,14.667 -2.667,2.667 -5.333,4 -8,6.667 -2.667,2.667 -4,2.667 -6.667,5.333 l -6.667,6.667 c -2.667,2.667 -6.667,8 -9.333,13.333 -2.667,5.333 -4,13.333 -4,13.333 0,0 -1.333,-8 -4,-13.333 -2.667,-5.333 -6.667,-10.667 -9.333,-13.333 l -6.667,-6.667 c -2.667,-2.667 -4,-2.667 -6.667,-5.333 -2.667,-2.667 -5.333,-4 -8,-6.667 -2.667,-2.667 -5.333,-9.698 -5.333,-14.667 0,-4.969 1.82,-11.153 5.333,-14.667 3.514,-3.514 9.698,-5.333 14.667,-5.333 4.969,0 11.153,1.82 14.667,5.333 3.514,3.514 5.333,14.667 5.333,14.667"
           id="path14726" />
        <path
           d="m 3020,-1727.6 c 0,0 1.82,-11.153 5.333,-14.667 3.514,-3.514 9.698,-5.333 14.667,-5.333 4.969,0 11.153,1.82 14.667,5.333 3.514,3.514 5.333,9.698 5.333,14.667 0,4.969 -2.667,12 -5.333,14.667 -2.667,2.667 -5.333,4 -8,6.667 -2.667,2.667 -4,2.667 -6.667,5.333 l -6.667,6.667 c -2.667,2.667 -6.667,8 -9.333,13.333 -2.667,5.333 -4,13.333 -4,13.333 0,0 -1.333,-8 -4,-13.333 -2.667,-5.333 -6.667,-10.667 -9.333,-13.333 l -6.667,-6.667 c -2.667,-2.667 -4,-2.667 -6.667,-5.333 -2.667,-2.667 -5.333,-4 -8,-6.667 -2.667,-2.667 -5.333,-9.698 -5.333,-14.667 0,-4.969 1.82,-11.153 5.333,-14.667 3.514,-3.514 9.698,-5.333 14.667,-5.333 4.969,0 11.153,1.82 14.667,5.333 3.514,3.514 5.333,14.667 5.333,14.667"
           id="path14728" />
        <path
           d="m 2860,-1547.6 c 0,0 1.82,-11.153 5.333,-14.667 3.514,-3.514 9.698,-5.333 14.667,-5.333 4.969,0 11.153,1.82 14.667,5.333 3.514,3.514 5.333,9.698 5.333,14.667 0,4.969 -2.667,12 -5.333,14.667 -2.667,2.667 -5.333,4 -8,6.667 -2.667,2.667 -4,2.667 -6.667,5.333 l -6.667,6.667 c -2.667,2.667 -6.667,8 -9.333,13.333 -2.667,5.333 -4,13.333 -4,13.333 0,0 -1.333,-8 -4,-13.333 -2.667,-5.333 -6.667,-10.667 -9.333,-13.333 l -6.667,-6.667 c -2.667,-2.667 -4,-2.667 -6.667,-5.333 -2.667,-2.667 -5.333,-4 -8,-6.667 -2.667,-2.667 -5.333,-9.698 -5.333,-14.667 0,-4.969 1.82,-11.153 5.333,-14.667 3.514,-3.514 9.698,-5.333 14.667,-5.333 4.969,0 11.153,1.82 14.667,5.333 3.514,3.514 5.333,14.667 5.333,14.667"
           id="path14730" />
        <path
           d="m 3020,-1547.6 c 0,0 1.82,-11.153 5.333,-14.667 3.514,-3.514 9.698,-5.333 14.667,-5.333 4.969,0 11.153,1.82 14.667,5.333 3.514,3.514 5.333,9.698 5.333,14.667 0,4.969 -2.667,12 -5.333,14.667 -2.667,2.667 -5.333,4 -8,6.667 -2.667,2.667 -4,2.667 -6.667,5.333 l -6.667,6.667 c -2.667,2.667 -6.667,8 -9.333,13.333 -2.667,5.333 -4,13.333 -4,13.333 0,0 -1.333,-8 -4,-13.333 -2.667,-5.333 -6.667,-10.667 -9.333,-13.333 l -6.667,-6.667 c -2.667,-2.667 -4,-2.667 -6.667,-5.333 -2.667,-2.667 -5.333,-4 -8,-6.667 -2.667,-2.667 -5.333,-9.698 -5.333,-14.667 0,-4.969 1.82,-11.153 5.333,-14.667 3.514,-3.514 9.698,-5.333 14.667,-5.333 4.969,0 11.153,1.82 14.667,5.333 3.514,3.514 5.333,14.667 5.333,14.667"
           id="path14732" />
        <path
           d="m 2860,-1327.6 c 0,0 1.82,11.153 5.333,14.667 3.514,3.514 9.698,5.333 14.667,5.333 4.969,0 11.153,-1.82 14.667,-5.333 3.514,-3.514 5.333,-9.698 5.333,-14.667 0,-4.969 -2.667,-12 -5.333,-14.667 -2.667,-2.667 -5.333,-4 -8,-6.667 -2.667,-2.667 -4,-2.667 -6.667,-5.333 l -6.667,-6.667 c -2.667,-2.667 -6.667,-8 -9.333,-13.333 -2.667,-5.333 -4,-13.333 -4,-13.333 0,0 -1.333,8 -4,13.333 -2.667,5.333 -6.667,10.667 -9.333,13.333 l -6.667,6.667 c -2.667,2.667 -4,2.667 -6.667,5.333 -2.667,2.667 -5.333,4 -8,6.667 -2.667,2.667 -5.333,9.698 -5.333,14.667 0,4.969 1.82,11.153 5.333,14.667 3.514,3.514 9.698,5.333 14.667,5.333 4.969,0 11.153,-1.82 14.667,-5.333 3.514,-3.514 5.333,-14.667 5.333,-14.667"
           id="path14734" />
        <path
           d="m 3020,-1327.6 c 0,0 1.82,11.153 5.333,14.667 3.514,3.514 9.698,5.333 14.667,5.333 4.969,0 11.153,-1.82 14.667,-5.333 3.514,-3.514 5.333,-9.698 5.333,-14.667 0,-4.969 -2.667,-12 -5.333,-14.667 -2.667,-2.667 -5.333,-4 -8,-6.667 -2.667,-2.667 -4,-2.667 -6.667,-5.333 l -6.667,-6.667 c -2.667,-2.667 -6.667,-8 -9.333,-13.333 -2.667,-5.333 -4,-13.333 -4,-13.333 0,0 -1.333,8 -4,13.333 -2.667,5.333 -6.667,10.667 -9.333,13.333 l -6.667,6.667 c -2.667,2.667 -4,2.667 -6.667,5.333 -2.667,2.667 -5.333,4 -8,6.667 -2.667,2.667 -5.333,9.698 -5.333,14.667 0,4.969 1.82,11.153 5.333,14.667 3.514,3.514 9.698,5.333 14.667,5.333 4.969,0 11.153,-1.82 14.667,-5.333 3.514,-3.514 5.333,-14.667 5.333,-14.667"
           id="path14736" />
        <path
           d="m 2940,-1417.6 c 0,0 1.82,11.153 5.333,14.667 3.514,3.514 9.698,5.333 14.667,5.333 4.969,0 11.153,-1.82 14.667,-5.333 3.514,-3.514 5.333,-9.698 5.333,-14.667 0,-4.969 -2.667,-12 -5.333,-14.667 -2.667,-2.667 -5.333,-4 -8,-6.667 -2.667,-2.667 -4,-2.667 -6.667,-5.333 l -6.667,-6.667 c -2.667,-2.667 -6.667,-8 -9.333,-13.333 -2.667,-5.333 -4,-13.333 -4,-13.333 0,0 -1.333,8 -4,13.333 -2.667,5.333 -6.667,10.667 -9.333,13.333 l -6.667,6.667 c -2.667,2.667 -4,2.667 -6.667,5.333 -2.667,2.667 -5.333,4 -8,6.667 -2.667,2.667 -5.333,9.698 -5.333,14.667 0,4.969 1.82,11.153 5.333,14.667 3.514,3.514 9.698,5.333 14.667,5.333 4.969,0 11.153,-1.82 14.667,-5.333 3.514,-3.514 5.333,-14.667 5.333,-14.667"
           id="path14738" />
        <path
           d="m 2940,-1637.6 c 0,0 1.82,-11.153 5.333,-14.667 3.514,-3.514 9.698,-5.333 14.667,-5.333 4.969,0 11.153,1.82 14.667,5.333 3.514,3.514 5.333,9.698 5.333,14.667 0,4.969 -2.667,12 -5.333,14.667 -2.667,2.667 -5.333,4 -8,6.667 -2.667,2.667 -4,2.667 -6.667,5.333 l -6.667,6.667 c -2.667,2.667 -6.667,8 -9.333,13.333 -2.667,5.333 -4,13.333 -4,13.333 0,0 -1.333,-8 -4,-13.333 -2.667,-5.333 -6.667,-10.667 -9.333,-13.333 l -6.667,-6.667 c -2.667,-2.667 -4,-2.667 -6.667,-5.333 -2.667,-2.667 -5.333,-4 -8,-6.667 -2.667,-2.667 -5.333,-9.698 -5.333,-14.667 0,-4.969 1.82,-11.153 5.333,-14.667 3.514,-3.514 9.698,-5.333 14.667,-5.333 4.969,0 11.153,1.82 14.667,5.333 3.514,3.514 5.333,14.667 5.333,14.667"
           id="path14740" />
      </g>
    </g>
  </g>
</svg>
